<svg width="40" height="40" viewBox="0 0 40 40" fill="none" xmlns="http://www.w3.org/2000/svg">
  <!-- Golf ball outline -->
  <circle cx="20" cy="20" r="18" fill="white" stroke="#205A50" stroke-width="2"/>
  
  <!-- Golf ball dimples pattern -->
  <path d="M12 14C12 15.1046 11.1046 16 10 16C8.89543 16 8 15.1046 8 14C8 12.8954 8.89543 12 10 12C11.1046 12 12 12.8954 12 14Z" fill="#205A50"/>
  <path d="M18 10C18 11.1046 17.1046 12 16 12C14.8954 12 14 11.1046 14 10C14 8.89543 14.8954 8 16 8C17.1046 8 18 8.89543 18 10Z" fill="#205A50"/>
  <path d="M24 8C24 9.10457 23.1046 10 22 10C20.8954 10 20 9.10457 20 8C20 6.89543 20.8954 6 22 6C23.1046 6 24 6.89543 24 8Z" fill="#205A50"/>
  <path d="M30 10C30 11.1046 29.1046 12 28 12C26.8954 12 26 11.1046 26 10C26 8.89543 26.8954 8 28 8C29.1046 8 30 8.89543 30 10Z" fill="#205A50"/>
  <path d="M34 16C34 17.1046 33.1046 18 32 18C30.8954 18 30 17.1046 30 16C30 14.8954 30.8954 14 32 14C33.1046 14 34 14.8954 34 16Z" fill="#205A50"/>
  <path d="M34 24C34 25.1046 33.1046 26 32 26C30.8954 26 30 25.1046 30 24C30 22.8954 30.8954 22 32 22C33.1046 22 34 22.8954 34 24Z" fill="#205A50"/>
  <path d="M30 32C30 33.1046 29.1046 34 28 34C26.8954 34 26 33.1046 26 32C26 30.8954 26.8954 30 28 30C29.1046 30 30 30.8954 30 32Z" fill="#205A50"/>
  <path d="M22 34C22 35.1046 21.1046 36 20 36C18.8954 36 18 35.1046 18 34C18 32.8954 18.8954 32 20 32C21.1046 32 22 32.8954 22 34Z" fill="#205A50"/>
  <path d="M14 32C14 33.1046 13.1046 34 12 34C10.8954 34 10 33.1046 10 32C10 30.8954 10.8954 30 12 30C13.1046 30 14 30.8954 14 32Z" fill="#205A50"/>
  <path d="M8 26C8 27.1046 7.10457 28 6 28C4.89543 28 4 27.1046 4 26C4 24.8954 4.89543 24 6 24C7.10457 24 8 24.8954 8 26Z" fill="#205A50"/>
  <path d="M10 20C10 21.1046 9.10457 22 8 22C6.89543 22 6 21.1046 6 20C6 18.8954 6.89543 18 8 18C9.10457 18 10 18.8954 10 20Z" fill="#205A50"/>
  
  <!-- Cross-hatch pattern for dimension -->
  <path d="M16 18C16 19.1046 15.1046 20 14 20C12.8954 20 12 19.1046 12 18C12 16.8954 12.8954 16 14 16C15.1046 16 16 16.8954 16 18Z" fill="#49DCB1"/>
  <path d="M22 16C22 17.1046 21.1046 18 20 18C18.8954 18 18 17.1046 18 16C18 14.8954 18.8954 14 20 14C21.1046 14 22 14.8954 22 16Z" fill="#49DCB1"/>
  <path d="M28 18C28 19.1046 27.1046 20 26 20C24.8954 20 24 19.1046 24 18C24 16.8954 24.8954 16 26 16C27.1046 16 28 16.8954 28 18Z" fill="#49DCB1"/>
  <path d="M26 26C26 27.1046 25.1046 28 24 28C22.8954 28 22 27.1046 22 26C22 24.8954 22.8954 24 24 24C25.1046 24 26 24.8954 26 26Z" fill="#49DCB1"/>
  <path d="M18 28C18 29.1046 17.1046 30 16 30C14.8954 30 14 29.1046 14 28C14 26.8954 14.8954 26 16 26C17.1046 26 18 26.8954 18 28Z" fill="#49DCB1"/>
  <path d="M16 24C16 25.1046 15.1046 26 14 26C12.8954 26 12 25.1046 12 24C12 22.8954 12.8954 22 14 22C15.1046 22 16 22.8954 16 24Z" fill="#49DCB1"/>
  <path d="M22 22C22 23.1046 21.1046 24 20 24C18.8954 24 18 23.1046 18 22C18 20.8954 18.8954 20 20 20C21.1046 20 22 20.8954 22 22Z" fill="#FFD23F"/>
</svg>