<?xml version="1.0" encoding="UTF-8"?>
<svg id="Layer_1" data-name="Layer 1" xmlns="http://www.w3.org/2000/svg" viewBox="0 0 240 240">
  <defs>
    <style>
      .cls-1 {
        fill: #205a50;
      }

      .cls-2 {
        fill: #49dcb1;
      }
    </style>
  </defs>
  <circle class="cls-1" cx="167.09" cy="101.08" r="8.38"/>
  <circle class="cls-1" cx="166.45" cy="80.52" r="8.38"/>
  <circle class="cls-1" cx="186.44" cy="92.69" r="8.38"/>
  <circle class="cls-1" cx="182.92" cy="67.19" r="8.38"/>
  <circle class="cls-1" cx="128.8" cy="142.63" r="8.38"/>
  <circle class="cls-1" cx="108.66" cy="141.13" r="8.38"/>
  <circle class="cls-1" cx="119.23" cy="160.4" r="8.38"/>
  <circle class="cls-1" cx="94.08" cy="155.53" r="8.38"/>
  <circle class="cls-1" cx="147.5" cy="134.46" r="8.38"/>
  <circle class="cls-1" cx="162.54" cy="120.57" r="8.38"/>
  <circle class="cls-1" cx="146.03" cy="155.53" r="8.38"/>
  <circle class="cls-1" cx="168.34" cy="140.05" r="8.38"/>
  <circle class="cls-1" cx="182.92" cy="116.62" r="8.38"/>
  <path class="cls-2" d="M109.16,166.95c1.36,1,45.11-7.5,45.11-7.5-1.08-2.66-.26-5.81,2.13-7.4,3.29-2.19,7.55-.74,8.96,2.72l3.44,8.45c1.04,2.57.2,5.51-2.04,7.14l-26.63,19.34-8.32,31.72c-.32,3.07-2.9,5.4-5.99,5.4h-13.18c-3.08,0-5.67-2.33-5.99-5.39l-8.32-31.47-27.74-20.54c-2.28-1.69-3.07-4.75-1.89-7.33l3.44-7.54c1.38-3.02,4.95-4.36,7.97-2.98"/>
  <path class="cls-1" d="M119.23,172.08c-43.77,0-79.38-35.61-79.38-79.38S75.46,13.31,119.23,13.31s79.38,35.61,79.38,79.38-35.61,79.38-79.38,79.38ZM119.23,25.35c-37.14,0-67.35,30.21-67.35,67.35s30.21,67.35,67.35,67.35,67.35-30.21,67.35-67.35S156.37,25.35,119.23,25.35Z"/>
</svg>