<svg width="800" height="600" xmlns="http://www.w3.org/2000/svg">
  <defs>
    <pattern id="foliage" x="0" y="0" width="100" height="100" patternUnits="userSpaceOnUse">
      <rect width="100" height="100" fill="#2e8b57"/>
      <g fill="#3cb371">
        <ellipse cx="25" cy="25" rx="20" ry="15" />
        <ellipse cx="75" cy="25" rx="20" ry="15" />
        <ellipse cx="25" cy="75" rx="20" ry="15" />
        <ellipse cx="75" cy="75" rx="20" ry="15" />
        <ellipse cx="50" cy="50" rx="25" ry="20" />
      </g>
      <g fill="#228b22" opacity="0.7">
        <ellipse cx="0" cy="0" rx="25" ry="20" />
        <ellipse cx="100" cy="0" rx="25" ry="20" />
        <ellipse cx="0" cy="100" rx="25" ry="20" />
        <ellipse cx="100" cy="100" rx="25" ry="20" />
        <ellipse cx="50" cy="0" rx="30" ry="20" />
        <ellipse cx="50" cy="100" rx="30" ry="20" />
        <ellipse cx="0" cy="50" rx="20" ry="30" />
        <ellipse cx="100" cy="50" rx="20" ry="30" />
      </g>
    </pattern>
  </defs>
  <rect width="800" height="600" fill="url(#foliage)" />
</svg>